<?xml version="1.0" encoding="UTF-8" standalone="no"?>
<!-- Created with Inkscape (http://www.inkscape.org/) -->

<svg
   xmlns:dc="http://purl.org/dc/elements/1.1/"
   xmlns:cc="http://creativecommons.org/ns#"
   xmlns:rdf="http://www.w3.org/1999/02/22-rdf-syntax-ns#"
   xmlns:svg="http://www.w3.org/2000/svg"
   xmlns="http://www.w3.org/2000/svg"
   version="1.1"
   width="892.91339"
   height="155.9055"
   id="svg3533">
  <defs
     id="defs3535">
    <clipPath
       id="clipPath3286">
      <path
         d="m 205.92,36.64 203.281,0 0,53.353 -203.281,0 0,-53.353 z"
         id="path3288" />
    </clipPath>
  </defs>
  <metadata
     id="metadata3538">
    <rdf:RDF>
      <cc:Work
         rdf:about="">
        <dc:format>image/svg+xml</dc:format>
        <dc:type
           rdf:resource="http://purl.org/dc/dcmitype/StillImage" />
        <dc:title></dc:title>
      </cc:Work>
    </rdf:RDF>
  </metadata>
  <g
     transform="translate(7.5661567,-319.30026)"
     id="layer1">
    <g
       transform="matrix(4.3486032,0,0,4.3486032,-45.668119,-1408.3711)"
       id="g3580">
      <path
         d="m 149.62233,398.89041 -5.755,32.3925 6.2225,0 5.7525,-32.3925 -6.22,0 z"
         id="path3356"
         style="fill:#231f20;fill-opacity:1;fill-rule:nonzero;stroke:none" />
      <path
         d="m 169.07295,402.92728 0,-4.08125 44.2075,0 0,1.73875 -27.28,0 0,2.3425 -16.9275,0 z"
         id="path3358"
         style="fill:#1476c6;fill-opacity:1;fill-rule:nonzero;stroke:none" />
      <path
         d="m 168.0912,408.67028 0,-4.08 44.24625,0 0,1.7375 -25.2775,0 0,2.3425 -18.96875,0 z"
         id="path3360"
         style="fill:#1476c6;fill-opacity:1;fill-rule:nonzero;stroke:none" />
      <path
         d="m 167.0327,414.41178 0,-4.08 44.3225,0 0,1.7375 -23.31375,0 0,2.3425 -21.00875,0 z"
         id="path3362"
         style="fill:#1476c6;fill-opacity:1;fill-rule:nonzero;stroke:none" />
      <path
         d="m 166.05083,420.15591 0,-4.08 44.20875,0 0,1.7375 -21.2375,0 0,2.3425 -22.97125,0 z"
         id="path3364"
         style="fill:#1476c6;fill-opacity:1;fill-rule:nonzero;stroke:none" />
      <path
         d="m 165.02908,425.82303 0,-4.08 44.28625,0 0,1.7375 -19.23375,0 0,2.3425 -25.0525,0 z"
         id="path3366"
         style="fill:#1476c6;fill-opacity:1;fill-rule:nonzero;stroke:none" />
      <path
         d="m 164.0852,431.34116 0,-4.08375 44.20875,0 0,1.73875 -17.38125,0 0,2.345 -26.8275,0 z"
         id="path3368"
         style="fill:#1476c6;fill-opacity:1;fill-rule:nonzero;stroke:none" />
      <g
         transform="matrix(1.25,0,0,-1.25,-247.8233,510.58116)"
         id="g3370">
        <g
           clip-path="url(#clipPath3286)"
           id="g3372">
          <path
             d="m 226.6318,82.2547 c 0.365,0.853 -0.522,3.654 -1.149,4.413 -2.6,3.144 -6.775,3.341 -8.161,3.325 -5.321,-0.06 -8.767,-2.419 -9.25,-6.771 -0.276,-2.476 0.885,-5.067 3.204,-6.65 2.659,-1.813 6.71,-2.697 8.101,-4.474 1.053,-1.28 0.798,-3.267 -0.605,-4.232 -1.934,-1.33 -5.259,-0.906 -6.505,0.721 -0.714,0.932 -0.749,1.566 -0.628,2.243 l -5.684,0 c -0.257,-2.454 0.918,-4.59 2.932,-6.26 1.673,-1.387 4.72,-1.848 6.041,-1.815 2.886,0.036 4.038,-0.161 6.505,1.243 3.929,2.237 5.285,7.029 3.204,10.398 -1.27,2.055 -3.567,3.325 -5.261,3.972 -0.915,0.352 -4.199,1.498 -4.689,2.138 -1.091,0.462 -1.476,1.325 -1.295,2.655 0.298,2.184 2.539,2.358 3.812,2.388 3.02,0.07 3.624,-1.722 3.871,-3.294 l 5.557,0 z"
             id="path3374"
             style="fill:#231f20;fill-opacity:1;fill-rule:nonzero;stroke:none" />
          <path
             d="m 245.9081,69.7409 c -0.185,-1.244 0.105,-4.556 3.576,-6.226 0.92,-0.428 2.03,-0.837 3.688,-0.908 1.7,-0.035 3.04,0.202 4.473,0.665 3.479,1.173 4.56,4.099 4.475,6.045 -0.122,2.781 -1.753,3.688 -3.447,4.595 l -5.018,1.874 c -1.624,0.463 -1.339,2.405 -0.363,2.903 1.639,0.817 2.433,0.517 3.093,0.249 1.2,-0.491 1.26,-1.277 1.413,-2.454 l 5.349,0.028 c -0.06,1.873 -0.658,3.492 -2.479,4.956 -1.456,1.173 -3.729,1.523 -5.803,1.452 -2.075,-0.072 -3.886,-0.538 -5.139,-1.391 -1.331,-0.888 -2.66,-2.84 -2.479,-4.958 0.125,-1.45 1.263,-3.12 2.902,-4.172 1.512,-0.966 5.138,-1.812 5.138,-1.812 2.48,-0.664 2.282,-4.456 -1.33,-4.171 -2.105,0.356 -3.022,1.088 -2.962,3.325 l -5.087,0 z"
             id="path3376"
             style="fill:#231f20;fill-opacity:1;fill-rule:nonzero;stroke:none" />
          <path
             d="m 267.9069,89.3526 -4.604,-25.914 4.977,0 1.758,9.566 8.04,-9.551 5.865,0 -7.981,9.311 9.673,9.55 -6.167,0 -9.43,-9.31 2.845,16.348 -4.976,0 z"
             id="path3378"
             style="fill:#231f20;fill-opacity:1;fill-rule:nonzero;stroke:none" />
          <path
             d="m 280.6175,89.3526 -0.789,-4.444 8.727,0 -3.814,-21.47 5.331,0 3.815,21.47 7.573,0 0.788,4.444 -21.631,0 z"
             id="path3380"
             style="fill:#231f20;fill-opacity:1;fill-rule:nonzero;stroke:none" />
          <path
             d="m 299.6064,74.6074 c 0.288,1.813 1.496,4.102 4.528,3.961 2.962,-0.142 3.376,-2.503 3.116,-3.961 l -7.644,0 z m 12.69,-3.355 c 0.518,2.311 0.457,4.688 -0.786,7.496 -0.867,1.919 -3.205,4.022 -6.972,4.022 -2.205,0 -6.933,-0.154 -9.471,-6.501 -0.574,-1.431 -1.09,-3.505 -0.908,-5.259 0.336,-3.252 1.575,-5.599 3.144,-6.77 1.199,-0.855 2.599,-1.487 4.478,-1.62 6.163,-0.437 9.669,3.372 10.092,6.256 l -5.562,0 c -0.604,-1.433 -1.292,-2.105 -2.78,-2.28 -1.028,-0.119 -2.079,0.116 -3.386,1.33 -0.847,0.786 -1.016,2.294 -0.726,3.326 l 12.877,0 z"
             id="path3382"
             style="fill:#231f20;fill-opacity:1;fill-rule:nonzero;stroke:none" />
          <path
             d="m 239.402,71.7641 c -0.378,-2.134 -1.153,-4.402 -4.186,-4.865 -2.195,-0.355 -2.698,0.677 -2.781,1.814 -0.148,1.563 0.84,2.496 2.419,2.782 1.324,0.249 3.142,0.657 4.715,1.51 l -0.167,-1.241 z m 4.278,-8.31 c 0,0 -0.224,1.537 -0.362,2.599 l 2.065,11.283 c -0.191,2.621 -1.605,4.098 -3.395,4.858 -0.573,0.243 -2.324,0.771 -4.243,0.771 -2.631,0 -8.575,-1.014 -8.431,-6.235 l 4.693,0 c 0.317,1.387 1.995,2.685 4.474,2.2 0.772,-0.15 0.967,-0.362 1.451,-1.087 0.515,-0.775 -0.274,-2.106 -1.27,-2.177 -1.692,-0.121 -2.733,-0.473 -4.594,-0.545 -5.986,-0.907 -6.682,-3.806 -6.888,-6.564 -0.246,-3.289 2.716,-5.527 4.47,-5.587 4.9,-0.169 4.802,0.753 6.835,2.388 -0.155,-0.675 -0.081,-1.458 0.192,-1.92 l 5.003,0.016 z"
             id="path3384"
             style="fill:#231f20;fill-opacity:1;fill-rule:nonzero;stroke:none" />
        </g>
      </g>
    </g>
  </g>
</svg>
