<svg id="svg3533" xmlns="http://www.w3.org/2000/svg" xmlns:xlink="http://www.w3.org/1999/xlink" viewBox="0 0 885.83 148.98"><defs><clipPath id="clip-path" transform="translate(-3.54 -3.46)"><polygon points="3.54 293.48 1108.53 293.48 1108.53 3.46 3.54 3.46 3.54 293.48 3.54 293.48" style="fill:none"/></clipPath></defs><title>sasktel-logo</title><g id="layer1"><g id="g3580"><path id="path3356" d="M612.55,6.94l-25,140.86h27.06l25-140.86h-27Z" transform="translate(-3.54 -3.46)" style="fill:#231f20"/><path id="path3358" d="M697.13,24.5V6.75H889.37v7.56H770.74V24.5Z" transform="translate(-3.54 -3.46)" style="fill:#1476c6"/><path id="path3360" d="M692.86,49.47V31.73H885.27v7.56H775.35V49.47Z" transform="translate(-3.54 -3.46)" style="fill:#1476c6"/><path id="path3362" d="M688.26,74.44V56.7H881v7.56H779.62V74.44H688.26Z" transform="translate(-3.54 -3.46)" style="fill:#1476c6"/><path id="path3364" d="M684,99.42V81.68H876.23v7.56H783.88V99.42Z" transform="translate(-3.54 -3.46)" style="fill:#1476c6"/><path id="path3366" d="M679.54,124.06V106.32H872.13v7.56H788.49v10.19Z" transform="translate(-3.54 -3.46)" style="fill:#1476c6"/><path id="path3368" d="M675.44,148.06V130.3H867.69v7.56H792.1v10.2Z" transform="translate(-3.54 -3.46)" style="fill:#1476c6"/><g id="g3370"><g style="clip-path:url(#clip-path)"><g id="g3372"><path id="path3374" d="M116.13,45.53c2-4.64-2.84-19.86-6.25-24C95.75,4.45,73.05,3.38,65.52,3.47,36.6,3.79,17.87,16.61,15.24,40.27c-1.5,13.46,4.81,27.54,17.42,36.15,14.45,9.86,36.47,14.66,44,24.32a15.9,15.9,0,0,1-3.29,23C62.89,131,44.82,128.67,38,119.82c-3.88-5.07-4.07-8.51-3.41-12.19H3.73c-1.4,13.34,5,25,15.94,34,9.09,7.54,25.66,10,32.84,9.87,15.69-.2,21.95.88,35.36-6.76,21.36-12.16,28.73-38.21,17.42-56.52-6.9-11.17-19.39-18.07-28.6-21.59-5-1.91-22.82-8.14-25.49-11.62-5.93-2.51-8-7.2-7-14.43,1.62-11.87,13.8-12.82,20.72-13,16.42-.38,19.7,9.36,21,17.91Z" transform="translate(-3.54 -3.46)" style="fill:#231f20"/><path id="path3376" d="M220.91,113.55c-1,6.76.57,24.77,19.44,33.84a49.74,49.74,0,0,0,20,4.94,70.14,70.14,0,0,0,24.31-3.61c18.91-6.38,24.79-22.28,24.33-32.86-.66-15.12-9.53-20-18.74-25L263,80.69c-8.83-2.52-7.28-13.07-2-15.78,8.91-4.44,13.23-2.81,16.81-1.35,6.52,2.67,6.85,6.94,7.68,13.34l29.08-.15c-.33-10.18-3.58-19-13.48-26.94-7.91-6.38-20.27-8.28-31.54-7.89s-21.12,2.92-27.93,7.56c-7.23,4.83-14.46,15.44-13.48,27,.68,7.88,6.87,17,15.77,22.68,8.22,5.25,27.93,9.85,27.93,9.85,13.48,3.61,12.4,24.22-7.23,22.67-11.44-1.94-16.43-5.91-16.1-18.07H220.91Z" transform="translate(-3.54 -3.46)" style="fill:#231f20"/><path id="path3378" d="M340.49,6.94l-25,140.86h27.05l9.56-52,43.7,51.92h31.88L384.27,97.11,436.85,45.2H403.33L352.07,95.81,367.54,6.94h-27Z" transform="translate(-3.54 -3.46)" style="fill:#231f20"/><path id="path3380" d="M409.58,6.94,405.29,31.1h47.44L432,147.81h29L481.71,31.1h41.16l4.28-24.16H409.58Z" transform="translate(-3.54 -3.46)" style="fill:#231f20"/><path id="path3382" d="M512.8,87.1c1.57-9.86,8.13-22.3,24.61-21.53,16.1.77,18.35,13.61,16.94,21.53H512.8Zm69,18.24c2.82-12.56,2.48-25.48-4.27-40.75-4.71-10.43-17.42-21.86-37.9-21.86-12,0-37.69.84-51.48,35.34-3.12,7.78-5.92,19.05-4.94,28.59,1.83,17.68,8.56,30.43,17.09,36.8a45.9,45.9,0,0,0,24.34,8.81c33.5,2.38,52.56-18.33,54.86-34H549.25c-3.28,7.79-7,11.44-15.11,12.39-5.59.65-11.3-.63-18.41-7.23-4.6-4.27-5.52-12.47-3.95-18.08h70Z" transform="translate(-3.54 -3.46)" style="fill:#231f20"/><path id="path3384" d="M185.54,102.55c-2.05,11.6-6.27,23.93-22.75,26.44-11.93,1.93-14.67-3.68-15.12-9.86-.8-8.5,4.57-13.57,13.15-15.12,7.2-1.35,17.08-3.57,25.63-8.21l-.91,6.75Zm23.25,45.17s-1.22-8.35-2-14.13l11.22-61.33C217,58,209.33,50,199.6,45.86a67.3,67.3,0,0,0-23.06-4.19c-14.3,0-46.61,5.51-45.83,33.89h25.51c1.72-7.54,10.84-14.59,24.32-12,4.2.82,5.26,2,7.89,5.91,2.8,4.21-1.49,11.45-6.9,11.83-9.2.66-14.86,2.57-25,3C124,89.23,120.23,105,119.11,120c-1.34,17.88,14.76,30,24.3,30.37,26.64.92,26.1-4.09,37.15-13-.84,3.67-.44,7.93,1,10.44l27.2-.09Z" transform="translate(-3.54 -3.46)" style="fill:#231f20"/></g></g></g></g></g></svg>